<svg id="eWDTGbFqvpH1" xmlns="http://www.w3.org/2000/svg" xmlns:xlink="http://www.w3.org/1999/xlink" viewBox="0 0 1000 1000" shape-rendering="geometricPrecision" text-rendering="geometricPrecision"><line x1="250" y1="-500" x2="-250" y2="500" transform="translate(250 500)" fill="none" stroke="#000" stroke-width="10"/><line x1="250" y1="-500" x2="-250" y2="500" transform="matrix(-1 0 0 1 748 500)" fill="none" stroke="#000" stroke-width="10"/><line x1="186.086701" y1="0" x2="-186.086701" y2="0" transform="translate(561.913299 500)" fill="none" stroke="#000" stroke-width="10"/><line x1="-125" y1="-250" x2="125" y2="250" transform="matrix(1 0 0 0.999999 375 750)" fill="none" stroke="#000" stroke-width="10"/><line x1="125" y1="-253.306393" x2="-125" y2="253.306393" transform="translate(623 753.306393)" fill="none" stroke="#000" stroke-width="10"/><path d="M500,0q-248,498.536962,0,1000" transform="translate(.000001 0)" fill="none" stroke="#000" stroke-width="10"/><path d="M500,0q-248,498.536962,0,1000" transform="translate(-250 500.00025)" fill="none" stroke="#000" stroke-width="10"/><path d="M500,0q-248,498.536962,0,1000" transform="translate(250 500.00025)" fill="none" stroke="#000" stroke-width="10"/></svg>